<!DOCTYPE svg PUBLIC "-//W3C//DTD SVG 1.1//EN" "http://www.w3.org/Graphics/SVG/1.1/DTD/svg11.dtd">
<!-- Uploaded to: SVG Repo, www.svgrepo.com, Transformed by: SVG Repo Mixer Tools -->
<svg fill="#5B3D2D" width="256px" height="256px" viewBox="-53.76 -53.76 363.52 363.52" id="Flat" xmlns="http://www.w3.org/2000/svg" stroke="#5B3D2D" stroke-width="0.00256">
<g id="SVGRepo_bgCarrier" stroke-width="0" transform="translate(0,0), scale(1)">
<rect x="-53.76" y="-53.76" width="363.52" height="363.52" rx="181.76" fill="#D4B88E" strokewidth="0"/>
</g>
<g id="SVGRepo_tracerCarrier" stroke-linecap="round" stroke-linejoin="round" stroke="#D4B88E" stroke-width="1.536"/>
<g id="SVGRepo_iconCarrier"> <path d="M160,128a32,32,0,1,1-32-32A32.03667,32.03667,0,0,1,160,128Zm68-44v88a56.06353,56.06353,0,0,1-56,56H84a56.06353,56.06353,0,0,1-56-56V84A56.06353,56.06353,0,0,1,84,28h88A56.06353,56.06353,0,0,1,228,84Zm-52,44a48,48,0,1,0-48,48A48.05436,48.05436,0,0,0,176,128Zm16-52a12,12,0,1,0-12,12A12,12,0,0,0,192,76Z"/> </g>
</svg>