<!DOCTYPE svg PUBLIC "-//W3C//DTD SVG 1.1//EN" "http://www.w3.org/Graphics/SVG/1.1/DTD/svg11.dtd">
<!-- Uploaded to: SVG Repo, www.svgrepo.com, Transformed by: SVG Repo Mixer Tools -->
<svg fill="#705b3c" height="800px" width="800px" version="1.1" id="Layer_1" xmlns="http://www.w3.org/2000/svg" xmlns:xlink="http://www.w3.org/1999/xlink" viewBox="0 0 512.001 512.001" xml:space="preserve">
<g id="SVGRepo_bgCarrier" stroke-width="0"/>
<g id="SVGRepo_tracerCarrier" stroke-linecap="round" stroke-linejoin="round"/>
<g id="SVGRepo_iconCarrier"> <g> <g> <path d="M460.878,181.856v-24.96c12.307-3.318,21.394-14.572,21.394-27.915V60.379c0-15.942-12.97-28.913-28.912-28.913H58.64 c-15.942,0-28.912,12.971-28.912,28.913v68.605c0,12.851,8.43,23.766,20.05,27.517v25.392C22.179,182.792,0,205.51,0,233.324 v50.942v93.597v51.195c0,28.384,23.093,51.477,51.478,51.477h409.046c28.385,0,51.478-23.093,51.478-51.477v-51.195v-93.597 v-50.942C512,205.059,489.099,182.049,460.878,181.856z M47.452,128.983V60.379c0-6.17,5.019-11.19,11.188-11.19h13.498v67.547 c0,4.895,3.968,8.862,8.862,8.862s8.862-3.967,8.862-8.862V49.189h21.039v67.547c0,4.895,3.968,8.862,8.862,8.862 c4.894,0,8.862-3.967,8.862-8.862V49.189h21.039v67.547c0,4.895,3.968,8.862,8.862,8.862c4.894,0,8.862-3.967,8.862-8.862V49.189 h21.039v67.547c0,4.895,3.968,8.862,8.862,8.862c4.894,0,8.862-3.967,8.862-8.862V49.189h21.038v67.547 c0,4.895,3.968,8.862,8.862,8.862s8.862-3.967,8.862-8.862V49.189h21.039v67.547c0,4.895,3.968,8.862,8.862,8.862 c4.894,0,8.862-3.967,8.862-8.862V49.189h21.039v67.547c0,4.895,3.968,8.862,8.862,8.862c4.894,0,8.862-3.967,8.862-8.862V49.189 h21.039v67.547c0,4.895,3.968,8.862,8.862,8.862c4.894,0,8.862-3.967,8.862-8.862V49.189h21.038v67.547 c0,4.895,3.968,8.862,8.862,8.862c4.894,0,8.862-3.967,8.862-8.862V49.189h21.039v67.547c0,4.895,3.968,8.862,8.862,8.862 c4.894,0,8.862-3.967,8.862-8.862V49.189h14.636c6.169,0,11.188,5.019,11.188,11.19v68.605c0,6.169-5.019,11.188-11.188,11.188 h-1.343H58.64C52.471,140.171,47.452,135.152,47.452,128.983z M17.724,233.324c0-18.612,15.142-33.753,33.754-33.753H94.94 c4.894,0,8.862-3.966,8.862-8.862c0-4.895-3.968-8.862-8.862-8.862H67.503v-23.953h375.651v23.953H144.932 c-4.894,0-8.862,3.966-8.862,8.862c0,4.895,3.968,8.862,8.862,8.862h315.59c18.612,0,33.754,15.141,33.754,33.753v42.081H395.91 c-16.178-24.262-43.689-39.134-72.994-39.134H189.084c-29.305,0-56.815,14.871-72.994,39.134H17.724V233.324z M17.724,293.129 h103.276c3.15,0,6.064-1.672,7.652-4.393c12.516-21.429,35.673-34.741,60.433-34.741h133.832c24.76,0,47.916,13.313,60.433,34.741 c1.588,2.721,4.502,4.393,7.652,4.393h103.276v75.874H390.919c-3.144,0-6.052,1.665-7.642,4.377 c-12.529,21.351-35.659,34.615-60.361,34.615H189.084c-24.702,0-47.83-13.264-60.361-34.615c-1.592-2.712-4.499-4.377-7.642-4.377 H17.724V293.129z M494.279,429.061c-0.002,18.611-15.144,33.753-33.756,33.753H51.478c-18.612,0-33.754-15.142-33.754-33.753 v-42.333h98.461c16.189,24.175,43.664,38.992,72.901,38.992h133.832c29.237,0,56.712-14.817,72.901-38.992h98.461V429.061z"/> </g> </g> <g> <g> <path d="M381.449,345.125c-0.74-1.286-2.077-2.878-4.411-3.802l0.004-0.011c-0.497-0.198-1.009-0.351-1.527-0.456 c-0.022-0.006-0.044-0.011-0.066-0.015c-10.087-2.201-24.116-6.304-33.241-11.216c-11.329-6.097-16.582-14.239-21.662-22.112 c-5.848-9.062-12.475-19.333-27.382-22.475c-5.41-1.14-19.219-2.823-30.632,6.13c-1.537,1.206-2.89,2.503-4.086,3.852 c-1.196-1.351-2.547-2.647-4.086-3.852c-11.413-8.953-25.223-7.269-30.632-6.13c-14.907,3.141-21.535,13.413-27.382,22.475 c-5.08,7.873-10.333,16.015-21.663,22.112c-9.125,4.912-23.154,9.014-33.241,11.216c-0.022,0.005-0.045,0.011-0.066,0.015 c-0.518,0.105-1.029,0.258-1.527,0.456l0.004,0.011c-2.334,0.924-3.671,2.518-4.411,3.802c-1.763,3.061-1.538,6.877,0.57,9.713 c1.117,1.502,2.65,2.575,4.356,3.132c18.215,7,36.825,10.537,55.396,10.537c1.452,0,2.904-0.022,4.355-0.065 c12.382-0.37,26.414-0.787,41.049-9.903c7.788-4.849,13.344-9.928,17.277-14.92c3.933,4.992,9.489,10.071,17.276,14.92 c14.636,9.116,28.67,9.533,41.05,9.903c1.452,0.043,2.903,0.065,4.355,0.065c18.571,0,37.184-3.539,55.398-10.538 c1.705-0.558,3.237-1.632,4.355-3.131C382.989,352.003,383.213,348.186,381.449,345.125z M249.582,319.826 c-0.115,5.817-3.292,14.646-17.783,23.668c-10.575,6.586-21.083,6.899-32.207,7.23c-8.223,0.245-16.477-0.302-24.71-1.637 c2.842-1.18,5.62-2.467,8.201-3.857c15.349-8.26,22.45-19.267,28.156-28.11c5.719-8.863,8.794-13.192,16.144-14.741 c2.323-0.487,10.342-1.737,16.04,2.733C249.595,309.958,249.602,318.83,249.582,319.826z M317.299,350.726 c-11.125-0.331-21.632-0.644-32.209-7.23c-14.49-9.024-17.668-17.851-17.782-23.668c-0.02-0.996-0.013-9.87,6.161-14.712 c3.327-2.61,7.447-3.271,10.762-3.271c2.36,0,4.312,0.334,5.278,0.538c7.349,1.549,10.425,5.878,16.144,14.741 c5.706,8.843,12.807,19.849,28.156,28.11c2.583,1.39,5.36,2.676,8.201,3.857C333.777,350.423,325.523,350.973,317.299,350.726z"/> </g> </g> </g>
</svg>