<!DOCTYPE svg PUBLIC "-//W3C//DTD SVG 1.1//EN" "http://www.w3.org/Graphics/SVG/1.1/DTD/svg11.dtd">
<!-- Uploaded to: SVG Repo, www.svgrepo.com, Transformed by: SVG Repo Mixer Tools -->
<svg fill="#705b3c" height="256px" width="256px" version="1.1" id="Layer_1" xmlns="http://www.w3.org/2000/svg" xmlns:xlink="http://www.w3.org/1999/xlink" viewBox="0 0 512 512" xml:space="preserve" transform="matrix(1, 0, 0, 1, 0, 0)rotate(90)">
<g id="SVGRepo_bgCarrier" stroke-width="0"/>
<g id="SVGRepo_tracerCarrier" stroke-linecap="round" stroke-linejoin="round" stroke="#CCCCCC" stroke-width="1.024"/>
<g id="SVGRepo_iconCarrier"> <g> <g> <path d="M462.932,448.768c-0.709-16.916-8.533-32.885-21.464-43.813l-101.097-85.429l54.929-54.929 c25.188-25.187,25.188-66.17,0-91.358l-11.805-11.805L281.855,263.076l-7.253-7.253l89.835-89.836l-23.611-23.611l-89.835,89.836 l-7.254-7.254l89.836-89.835l-23.611-23.611l-89.836,89.835l-7.254-7.254l89.836-89.835l-23.611-23.611l-89.836,89.835 l-7.253-7.253l89.835-89.836l-23.611-23.611l-89.835,89.836l-7.254-7.254L252.785,30.724L240.98,18.919 C228.779,6.719,212.558,0,195.302,0c-17.256,0-33.477,6.719-45.678,18.921l-84.693,84.693 c-20.743,20.742-21.277,53.754-1.22,75.157l294.301,314.04c11.34,12.101,26.717,18.913,43.298,19.182 c0.341,0.006,0.678,0.008,1.017,0.008c16.201,0,31.396-6.29,42.881-17.776C457.182,482.252,463.643,465.685,462.932,448.768z M421.6,470.613c-5.275,5.274-12.238,8.086-19.747,7.993c-7.457-0.121-14.375-3.185-19.475-8.628L88.077,155.939 c-7.663-8.178-7.459-20.791,0.465-28.714l84.693-84.693c5.894-5.895,13.73-9.14,22.067-9.14c2.333,0,4.625,0.254,6.847,0.749 l-98.227,98.227l177.93,177.93l98.227-98.227c0.495,2.223,0.749,4.517,0.749,6.847c0,8.337-3.246,16.174-9.14,22.068 l-80.607,80.607L419.915,430.46c5.902,4.987,9.332,11.987,9.655,19.708C429.894,457.888,427.064,465.149,421.6,470.613z"/> </g> </g> </g>
</svg>