<!DOCTYPE svg PUBLIC "-//W3C//DTD SVG 1.1//EN" "http://www.w3.org/Graphics/SVG/1.1/DTD/svg11.dtd">
<!-- Uploaded to: SVG Repo, www.svgrepo.com, Transformed by: SVG Repo Mixer Tools -->
<svg fill="#E7C873" height="256px" width="256px" version="1.1" id="Layer_1" xmlns="http://www.w3.org/2000/svg" xmlns:xlink="http://www.w3.org/1999/xlink" viewBox="0 0 512 512" xml:space="preserve">
<g id="SVGRepo_bgCarrier" stroke-width="0"/>
<g id="SVGRepo_tracerCarrier" stroke-linecap="round" stroke-linejoin="round"/>
<g id="SVGRepo_iconCarrier"> <g> <g> <path d="M255.875,36.15c-64.95,0-117.79,52.84-117.79,117.79c0,4.755,3.854,8.608,8.608,8.608c4.754,0,8.608-3.853,8.608-8.608 c0-55.456,45.117-100.574,100.574-100.574c4.754,0,8.608-3.853,8.608-8.608C264.484,40.003,260.629,36.15,255.875,36.15z"/> </g> </g> <g> <g> <path d="M462.227,142.696c-6.199-14.699-23.203-21.611-37.901-15.413c-6.89,2.906-12.07,8.186-14.99,14.489 C403.111,62.555,336.662,0,255.875,0c-80.629,0-146.97,62.308-153.419,141.302c-6.659-13.735-23.043-20.018-37.269-14.019 c-14.699,6.199-21.615,23.203-15.414,37.901c3.004,7.121,8.6,12.646,15.759,15.557c1.358,0.552,2.742,0.995,4.141,1.334 c13.291,88.953,87.781,155.928,177.594,159.97v152.738h-66.496c-4.754,0-8.608,3.853-8.608,8.608s3.854,8.608,8.608,8.608h150.474 c4.754,0,8.608-3.853,8.608-8.608s-3.854-8.608-8.608-8.608h-66.761V342.045c89.81-4.04,164.273-70.982,177.586-159.914 c1.607-0.374,3.194-0.879,4.745-1.533C461.511,174.398,468.427,157.396,462.227,142.696z M255.875,17.216 c75.39,0,136.725,61.334,136.725,136.724c0,75.391-61.334,136.725-136.725,136.725S119.151,229.331,119.151,153.94 C119.151,78.55,180.484,17.216,255.875,17.216z M80.984,164.734c-5.95,2.515-12.836-0.288-15.348-6.24 c-1.217-2.883-1.237-6.067-0.057-8.966c1.179-2.899,3.416-5.166,6.3-6.383c1.482-0.626,3.021-0.921,4.537-0.921 c4.572,0,8.925,2.693,10.81,7.161C89.737,155.338,86.937,162.223,80.984,164.734z M255.875,325.026 c-84.595,0-155.935-61.441-168.972-144.126c0.257-0.1,0.517-0.195,0.772-0.303c6.732-2.84,11.823-7.947,14.777-14.058 c6.431,79.013,72.781,141.342,153.422,141.342c80.799,0,147.256-62.574,153.464-141.807c3.086,6.682,8.48,11.88,15.332,14.667 c0.063,0.025,0.127,0.047,0.19,0.072C411.861,263.549,340.518,325.026,255.875,325.026z M440.122,164.735 c-5.95,2.512-12.836-0.289-15.348-6.241v0.001c-2.511-5.953,0.289-12.839,6.242-15.349c5.951-2.511,12.836,0.29,15.348,6.242 C448.875,155.339,446.074,162.225,440.122,164.735z"/> </g> </g> </g>
</svg>